<mxfile host="app.diagrams.net" agent="Mozilla/5.0 (Windows NT 10.0; Win64; x64) AppleWebKit/537.36 (KHTML, like Gecko) Chrome/134.0.0.0 Safari/537.36" version="26.1.0">
  <diagram name="Página-1" id="eMbfuCLWaAyo0kqK8iz1">
    <mxGraphModel dx="1300" dy="1788" grid="1" gridSize="10" guides="1" tooltips="1" connect="1" arrows="1" fold="1" page="1" pageScale="1" pageWidth="827" pageHeight="1169" math="0" shadow="0">
      <root>
        <mxCell id="0" />
        <mxCell id="1" parent="0" />
        <mxCell id="u3898H1TUdP29E4AW8oR-110" value="" style="triangle;whiteSpace=wrap;html=1;rotation=90;" parent="1" vertex="1">
          <mxGeometry x="350" y="-210" width="90" height="100" as="geometry" />
        </mxCell>
        <mxCell id="u3898H1TUdP29E4AW8oR-12" value="Usuario" style="swimlane;fontStyle=0;childLayout=stackLayout;horizontal=1;startSize=30;horizontalStack=0;resizeParent=1;resizeParentMax=0;resizeLast=0;collapsible=1;marginBottom=0;whiteSpace=wrap;html=1;" parent="1" vertex="1">
          <mxGeometry x="120" y="380" width="140" height="210" as="geometry" />
        </mxCell>
        <mxCell id="u3898H1TUdP29E4AW8oR-13" value="#ID" style="text;strokeColor=none;fillColor=none;align=left;verticalAlign=middle;spacingLeft=4;spacingRight=4;overflow=hidden;points=[[0,0.5],[1,0.5]];portConstraint=eastwest;rotatable=0;whiteSpace=wrap;html=1;" parent="u3898H1TUdP29E4AW8oR-12" vertex="1">
          <mxGeometry y="30" width="140" height="30" as="geometry" />
        </mxCell>
        <mxCell id="u3898H1TUdP29E4AW8oR-14" value="Nombre" style="text;strokeColor=none;fillColor=none;align=left;verticalAlign=middle;spacingLeft=4;spacingRight=4;overflow=hidden;points=[[0,0.5],[1,0.5]];portConstraint=eastwest;rotatable=0;whiteSpace=wrap;html=1;" parent="u3898H1TUdP29E4AW8oR-12" vertex="1">
          <mxGeometry y="60" width="140" height="30" as="geometry" />
        </mxCell>
        <mxCell id="u3898H1TUdP29E4AW8oR-15" value="Email" style="text;strokeColor=none;fillColor=none;align=left;verticalAlign=middle;spacingLeft=4;spacingRight=4;overflow=hidden;points=[[0,0.5],[1,0.5]];portConstraint=eastwest;rotatable=0;whiteSpace=wrap;html=1;" parent="u3898H1TUdP29E4AW8oR-12" vertex="1">
          <mxGeometry y="90" width="140" height="30" as="geometry" />
        </mxCell>
        <mxCell id="u3898H1TUdP29E4AW8oR-16" value="Contraseña" style="text;strokeColor=none;fillColor=none;align=left;verticalAlign=middle;spacingLeft=4;spacingRight=4;overflow=hidden;points=[[0,0.5],[1,0.5]];portConstraint=eastwest;rotatable=0;whiteSpace=wrap;html=1;" parent="u3898H1TUdP29E4AW8oR-12" vertex="1">
          <mxGeometry y="120" width="140" height="30" as="geometry" />
        </mxCell>
        <mxCell id="u3898H1TUdP29E4AW8oR-17" value="Antigüedad en la app" style="text;strokeColor=none;fillColor=none;align=left;verticalAlign=middle;spacingLeft=4;spacingRight=4;overflow=hidden;points=[[0,0.5],[1,0.5]];portConstraint=eastwest;rotatable=0;whiteSpace=wrap;html=1;" parent="u3898H1TUdP29E4AW8oR-12" vertex="1">
          <mxGeometry y="150" width="140" height="30" as="geometry" />
        </mxCell>
        <mxCell id="u3898H1TUdP29E4AW8oR-21" value="Valoraciones" style="text;strokeColor=none;fillColor=none;align=left;verticalAlign=middle;spacingLeft=4;spacingRight=4;overflow=hidden;points=[[0,0.5],[1,0.5]];portConstraint=eastwest;rotatable=0;whiteSpace=wrap;html=1;" parent="u3898H1TUdP29E4AW8oR-12" vertex="1">
          <mxGeometry y="180" width="140" height="30" as="geometry" />
        </mxCell>
        <mxCell id="u3898H1TUdP29E4AW8oR-23" value="Categoría" style="swimlane;fontStyle=0;childLayout=stackLayout;horizontal=1;startSize=26;horizontalStack=0;resizeParent=1;resizeParentMax=0;resizeLast=0;collapsible=1;marginBottom=0;align=center;fontSize=14;" parent="1" vertex="1">
          <mxGeometry x="1130" y="442" width="160" height="146" as="geometry" />
        </mxCell>
        <mxCell id="u3898H1TUdP29E4AW8oR-24" value="#ID" style="text;strokeColor=none;fillColor=none;spacingLeft=4;spacingRight=4;overflow=hidden;rotatable=0;points=[[0,0.5],[1,0.5]];portConstraint=eastwest;fontSize=12;whiteSpace=wrap;html=1;" parent="u3898H1TUdP29E4AW8oR-23" vertex="1">
          <mxGeometry y="26" width="160" height="30" as="geometry" />
        </mxCell>
        <mxCell id="u3898H1TUdP29E4AW8oR-25" value="Nombre" style="text;strokeColor=none;fillColor=none;spacingLeft=4;spacingRight=4;overflow=hidden;rotatable=0;points=[[0,0.5],[1,0.5]];portConstraint=eastwest;fontSize=12;whiteSpace=wrap;html=1;" parent="u3898H1TUdP29E4AW8oR-23" vertex="1">
          <mxGeometry y="56" width="160" height="30" as="geometry" />
        </mxCell>
        <mxCell id="u3898H1TUdP29E4AW8oR-26" value="Descripción" style="text;strokeColor=none;fillColor=none;spacingLeft=4;spacingRight=4;overflow=hidden;rotatable=0;points=[[0,0.5],[1,0.5]];portConstraint=eastwest;fontSize=12;whiteSpace=wrap;html=1;" parent="u3898H1TUdP29E4AW8oR-23" vertex="1">
          <mxGeometry y="86" width="160" height="30" as="geometry" />
        </mxCell>
        <mxCell id="u3898H1TUdP29E4AW8oR-27" value="Imagen" style="text;strokeColor=none;fillColor=none;spacingLeft=4;spacingRight=4;overflow=hidden;rotatable=0;points=[[0,0.5],[1,0.5]];portConstraint=eastwest;fontSize=12;whiteSpace=wrap;html=1;" parent="u3898H1TUdP29E4AW8oR-23" vertex="1">
          <mxGeometry y="116" width="160" height="30" as="geometry" />
        </mxCell>
        <mxCell id="u3898H1TUdP29E4AW8oR-33" value="Empleado" style="swimlane;fontStyle=0;childLayout=stackLayout;horizontal=1;startSize=26;horizontalStack=0;resizeParent=1;resizeParentMax=0;resizeLast=0;collapsible=1;marginBottom=0;align=center;fontSize=14;" parent="1" vertex="1">
          <mxGeometry x="380" y="980" width="160" height="146" as="geometry" />
        </mxCell>
        <mxCell id="u3898H1TUdP29E4AW8oR-35" value="ID" style="text;strokeColor=none;fillColor=none;spacingLeft=4;spacingRight=4;overflow=hidden;rotatable=0;points=[[0,0.5],[1,0.5]];portConstraint=eastwest;fontSize=12;whiteSpace=wrap;html=1;" parent="u3898H1TUdP29E4AW8oR-33" vertex="1">
          <mxGeometry y="26" width="160" height="30" as="geometry" />
        </mxCell>
        <mxCell id="u3898H1TUdP29E4AW8oR-36" value="Nombre" style="text;strokeColor=none;fillColor=none;spacingLeft=4;spacingRight=4;overflow=hidden;rotatable=0;points=[[0,0.5],[1,0.5]];portConstraint=eastwest;fontSize=12;whiteSpace=wrap;html=1;" parent="u3898H1TUdP29E4AW8oR-33" vertex="1">
          <mxGeometry y="56" width="160" height="30" as="geometry" />
        </mxCell>
        <mxCell id="u3898H1TUdP29E4AW8oR-38" value="Email" style="text;strokeColor=none;fillColor=none;spacingLeft=4;spacingRight=4;overflow=hidden;rotatable=0;points=[[0,0.5],[1,0.5]];portConstraint=eastwest;fontSize=12;whiteSpace=wrap;html=1;" parent="u3898H1TUdP29E4AW8oR-33" vertex="1">
          <mxGeometry y="86" width="160" height="30" as="geometry" />
        </mxCell>
        <mxCell id="u3898H1TUdP29E4AW8oR-37" value="Contraseña" style="text;strokeColor=none;fillColor=none;spacingLeft=4;spacingRight=4;overflow=hidden;rotatable=0;points=[[0,0.5],[1,0.5]];portConstraint=eastwest;fontSize=12;whiteSpace=wrap;html=1;" parent="u3898H1TUdP29E4AW8oR-33" vertex="1">
          <mxGeometry y="116" width="160" height="30" as="geometry" />
        </mxCell>
        <mxCell id="u3898H1TUdP29E4AW8oR-39" value="Valoración" style="swimlane;fontStyle=0;childLayout=stackLayout;horizontal=1;startSize=26;horizontalStack=0;resizeParent=1;resizeParentMax=0;resizeLast=0;collapsible=1;marginBottom=0;align=center;fontSize=14;" parent="1" vertex="1">
          <mxGeometry x="940" y="100" width="160" height="176" as="geometry" />
        </mxCell>
        <mxCell id="u3898H1TUdP29E4AW8oR-40" value="ID" style="text;strokeColor=none;fillColor=none;spacingLeft=4;spacingRight=4;overflow=hidden;rotatable=0;points=[[0,0.5],[1,0.5]];portConstraint=eastwest;fontSize=12;whiteSpace=wrap;html=1;" parent="u3898H1TUdP29E4AW8oR-39" vertex="1">
          <mxGeometry y="26" width="160" height="30" as="geometry" />
        </mxCell>
        <mxCell id="u3898H1TUdP29E4AW8oR-41" value="Puntuación (1-5)" style="text;strokeColor=none;fillColor=none;spacingLeft=4;spacingRight=4;overflow=hidden;rotatable=0;points=[[0,0.5],[1,0.5]];portConstraint=eastwest;fontSize=12;whiteSpace=wrap;html=1;" parent="u3898H1TUdP29E4AW8oR-39" vertex="1">
          <mxGeometry y="56" width="160" height="30" as="geometry" />
        </mxCell>
        <mxCell id="u3898H1TUdP29E4AW8oR-42" value="Comentario (opcional)" style="text;strokeColor=none;fillColor=none;spacingLeft=4;spacingRight=4;overflow=hidden;rotatable=0;points=[[0,0.5],[1,0.5]];portConstraint=eastwest;fontSize=12;whiteSpace=wrap;html=1;" parent="u3898H1TUdP29E4AW8oR-39" vertex="1">
          <mxGeometry y="86" width="160" height="30" as="geometry" />
        </mxCell>
        <mxCell id="u3898H1TUdP29E4AW8oR-44" value="Fecha" style="text;strokeColor=none;fillColor=none;spacingLeft=4;spacingRight=4;overflow=hidden;rotatable=0;points=[[0,0.5],[1,0.5]];portConstraint=eastwest;fontSize=12;whiteSpace=wrap;html=1;" parent="u3898H1TUdP29E4AW8oR-39" vertex="1">
          <mxGeometry y="116" width="160" height="30" as="geometry" />
        </mxCell>
        <mxCell id="u3898H1TUdP29E4AW8oR-43" value="ID_Usuario" style="text;strokeColor=none;fillColor=none;spacingLeft=4;spacingRight=4;overflow=hidden;rotatable=0;points=[[0,0.5],[1,0.5]];portConstraint=eastwest;fontSize=12;whiteSpace=wrap;html=1;" parent="u3898H1TUdP29E4AW8oR-39" vertex="1">
          <mxGeometry y="146" width="160" height="30" as="geometry" />
        </mxCell>
        <mxCell id="u3898H1TUdP29E4AW8oR-45" value="" style="line;strokeWidth=1;rotatable=0;dashed=0;labelPosition=right;align=left;verticalAlign=middle;spacingTop=0;spacingLeft=6;points=[];portConstraint=eastwest;" parent="1" vertex="1">
          <mxGeometry x="260" y="510" width="370" height="10" as="geometry" />
        </mxCell>
        <mxCell id="u3898H1TUdP29E4AW8oR-46" value="Comprar" style="shape=rhombus;perimeter=rhombusPerimeter;whiteSpace=wrap;html=1;align=center;" parent="1" vertex="1">
          <mxGeometry x="400" y="485" width="120" height="60" as="geometry" />
        </mxCell>
        <mxCell id="u3898H1TUdP29E4AW8oR-58" value="" style="endArrow=none;html=1;rounded=0;entryX=0.285;entryY=1.004;entryDx=0;entryDy=0;entryPerimeter=0;" parent="1" source="u3898H1TUdP29E4AW8oR-21" target="u3898H1TUdP29E4AW8oR-11" edge="1">
          <mxGeometry width="50" height="50" relative="1" as="geometry">
            <mxPoint x="180" y="760" as="sourcePoint" />
            <mxPoint x="460" y="730" as="targetPoint" />
            <Array as="points">
              <mxPoint x="190" y="720" />
              <mxPoint x="700" y="720" />
            </Array>
          </mxGeometry>
        </mxCell>
        <mxCell id="u3898H1TUdP29E4AW8oR-61" value="Pertenecer" style="shape=rhombus;perimeter=rhombusPerimeter;whiteSpace=wrap;html=1;align=center;" parent="1" vertex="1">
          <mxGeometry x="400" y="690" width="120" height="60" as="geometry" />
        </mxCell>
        <mxCell id="u3898H1TUdP29E4AW8oR-64" value="" style="endArrow=none;html=1;rounded=0;entryX=0.494;entryY=1;entryDx=0;entryDy=0;entryPerimeter=0;exitX=0.293;exitY=0.986;exitDx=0;exitDy=0;exitPerimeter=0;" parent="1" source="u3898H1TUdP29E4AW8oR-21" target="u3898H1TUdP29E4AW8oR-11" edge="1">
          <mxGeometry width="50" height="50" relative="1" as="geometry">
            <mxPoint x="200" y="690" as="sourcePoint" />
            <mxPoint x="730" y="691" as="targetPoint" />
            <Array as="points">
              <mxPoint x="160" y="800" />
              <mxPoint x="730" y="800" />
            </Array>
          </mxGeometry>
        </mxCell>
        <mxCell id="mEbNbHpy91OCYPONSAbM-17" value="0.1" style="edgeLabel;html=1;align=center;verticalAlign=middle;resizable=0;points=[];" vertex="1" connectable="0" parent="u3898H1TUdP29E4AW8oR-64">
          <mxGeometry x="-0.9606" y="9" relative="1" as="geometry">
            <mxPoint as="offset" />
          </mxGeometry>
        </mxCell>
        <mxCell id="u3898H1TUdP29E4AW8oR-67" value="Comentar" style="shape=rhombus;perimeter=rhombusPerimeter;whiteSpace=wrap;html=1;align=center;" parent="1" vertex="1">
          <mxGeometry x="400" y="770" width="120" height="60" as="geometry" />
        </mxCell>
        <mxCell id="u3898H1TUdP29E4AW8oR-70" value="" style="endArrow=none;html=1;rounded=0;entryX=0.721;entryY=1.24;entryDx=0;entryDy=0;entryPerimeter=0;exitX=0.149;exitY=1.205;exitDx=0;exitDy=0;exitPerimeter=0;" parent="1" source="u3898H1TUdP29E4AW8oR-21" target="u3898H1TUdP29E4AW8oR-11" edge="1">
          <mxGeometry width="50" height="50" relative="1" as="geometry">
            <mxPoint x="171" y="690" as="sourcePoint" />
            <mxPoint x="739" y="690" as="targetPoint" />
            <Array as="points">
              <mxPoint x="140" y="870" />
              <mxPoint x="760" y="870" />
            </Array>
          </mxGeometry>
        </mxCell>
        <mxCell id="mEbNbHpy91OCYPONSAbM-18" value="0.1" style="edgeLabel;html=1;align=center;verticalAlign=middle;resizable=0;points=[];" vertex="1" connectable="0" parent="u3898H1TUdP29E4AW8oR-70">
          <mxGeometry x="-0.9707" y="7" relative="1" as="geometry">
            <mxPoint as="offset" />
          </mxGeometry>
        </mxCell>
        <mxCell id="u3898H1TUdP29E4AW8oR-71" value="Reportar" style="shape=rhombus;perimeter=rhombusPerimeter;whiteSpace=wrap;html=1;align=center;" parent="1" vertex="1">
          <mxGeometry x="380" y="840" width="120" height="60" as="geometry" />
        </mxCell>
        <mxCell id="u3898H1TUdP29E4AW8oR-72" value="" style="endArrow=none;html=1;rounded=0;entryX=0.914;entryY=1.267;entryDx=0;entryDy=0;entryPerimeter=0;exitX=0.048;exitY=1.267;exitDx=0;exitDy=0;exitPerimeter=0;" parent="1" source="u3898H1TUdP29E4AW8oR-21" target="u3898H1TUdP29E4AW8oR-11" edge="1">
          <mxGeometry width="50" height="50" relative="1" as="geometry">
            <mxPoint x="151" y="696" as="sourcePoint" />
            <mxPoint x="771" y="697" as="targetPoint" />
            <Array as="points">
              <mxPoint x="120" y="980" />
              <mxPoint x="788" y="980" />
            </Array>
          </mxGeometry>
        </mxCell>
        <mxCell id="u3898H1TUdP29E4AW8oR-76" value="Eliminar" style="shape=rhombus;perimeter=rhombusPerimeter;whiteSpace=wrap;html=1;align=center;" parent="1" vertex="1">
          <mxGeometry x="90" y="900" width="80" height="60" as="geometry" />
        </mxCell>
        <mxCell id="u3898H1TUdP29E4AW8oR-78" value="Eliminar" style="shape=rhombus;perimeter=rhombusPerimeter;whiteSpace=wrap;html=1;align=center;" parent="1" vertex="1">
          <mxGeometry x="760" y="890" width="80" height="60" as="geometry" />
        </mxCell>
        <mxCell id="u3898H1TUdP29E4AW8oR-80" value="" style="endArrow=none;html=1;rounded=0;exitX=1;exitY=0.5;exitDx=0;exitDy=0;entryX=-0.016;entryY=1.058;entryDx=0;entryDy=0;entryPerimeter=0;" parent="1" source="u3898H1TUdP29E4AW8oR-83" target="u3898H1TUdP29E4AW8oR-26" edge="1">
          <mxGeometry relative="1" as="geometry">
            <mxPoint x="980" y="580" as="sourcePoint" />
            <mxPoint x="1140" y="580" as="targetPoint" />
          </mxGeometry>
        </mxCell>
        <mxCell id="u3898H1TUdP29E4AW8oR-84" value="" style="endArrow=none;html=1;rounded=0;entryX=0;entryY=0.5;entryDx=0;entryDy=0;exitX=0.994;exitY=-0.085;exitDx=0;exitDy=0;exitPerimeter=0;" parent="1" target="u3898H1TUdP29E4AW8oR-83" edge="1" source="u3898H1TUdP29E4AW8oR-9">
          <mxGeometry relative="1" as="geometry">
            <mxPoint x="800" y="560" as="sourcePoint" />
            <mxPoint x="1124" y="563" as="targetPoint" />
          </mxGeometry>
        </mxCell>
        <mxCell id="u3898H1TUdP29E4AW8oR-83" value="Pertenecer" style="shape=rhombus;perimeter=rhombusPerimeter;whiteSpace=wrap;html=1;align=center;" parent="1" vertex="1">
          <mxGeometry x="910" y="530" width="120" height="60" as="geometry" />
        </mxCell>
        <mxCell id="u3898H1TUdP29E4AW8oR-88" value="" style="swimlane;startSize=0;" parent="1" vertex="1">
          <mxGeometry x="60" y="360" width="800" height="350" as="geometry">
            <mxRectangle x="60" y="340" width="50" height="40" as="alternateBounds" />
          </mxGeometry>
        </mxCell>
        <mxCell id="u3898H1TUdP29E4AW8oR-1" value="Producto" style="swimlane;fontStyle=0;childLayout=stackLayout;horizontal=1;startSize=30;horizontalStack=0;resizeParent=1;resizeParentMax=0;resizeLast=0;collapsible=1;marginBottom=0;whiteSpace=wrap;html=1;" parent="u3898H1TUdP29E4AW8oR-88" vertex="1">
          <mxGeometry x="570" y="20" width="140" height="300" as="geometry" />
        </mxCell>
        <mxCell id="u3898H1TUdP29E4AW8oR-2" value="#ID" style="text;strokeColor=none;fillColor=none;align=left;verticalAlign=middle;spacingLeft=4;spacingRight=4;overflow=hidden;points=[[0,0.5],[1,0.5]];portConstraint=eastwest;rotatable=0;whiteSpace=wrap;html=1;" parent="u3898H1TUdP29E4AW8oR-1" vertex="1">
          <mxGeometry y="30" width="140" height="30" as="geometry" />
        </mxCell>
        <mxCell id="u3898H1TUdP29E4AW8oR-3" value="Nombre" style="text;strokeColor=none;fillColor=none;align=left;verticalAlign=middle;spacingLeft=4;spacingRight=4;overflow=hidden;points=[[0,0.5],[1,0.5]];portConstraint=eastwest;rotatable=0;whiteSpace=wrap;html=1;" parent="u3898H1TUdP29E4AW8oR-1" vertex="1">
          <mxGeometry y="60" width="140" height="30" as="geometry" />
        </mxCell>
        <mxCell id="u3898H1TUdP29E4AW8oR-5" value="Descripción" style="text;strokeColor=none;fillColor=none;align=left;verticalAlign=middle;spacingLeft=4;spacingRight=4;overflow=hidden;points=[[0,0.5],[1,0.5]];portConstraint=eastwest;rotatable=0;whiteSpace=wrap;html=1;" parent="u3898H1TUdP29E4AW8oR-1" vertex="1">
          <mxGeometry y="90" width="140" height="30" as="geometry" />
        </mxCell>
        <mxCell id="u3898H1TUdP29E4AW8oR-6" value="Antiguedad del producto" style="text;strokeColor=none;fillColor=none;align=left;verticalAlign=middle;spacingLeft=4;spacingRight=4;overflow=hidden;points=[[0,0.5],[1,0.5]];portConstraint=eastwest;rotatable=0;whiteSpace=wrap;html=1;" parent="u3898H1TUdP29E4AW8oR-1" vertex="1">
          <mxGeometry y="120" width="140" height="30" as="geometry" />
        </mxCell>
        <mxCell id="u3898H1TUdP29E4AW8oR-7" value="Estado (nuevo, segunda mano, etc)" style="text;strokeColor=none;fillColor=none;align=left;verticalAlign=middle;spacingLeft=4;spacingRight=4;overflow=hidden;points=[[0,0.5],[1,0.5]];portConstraint=eastwest;rotatable=0;whiteSpace=wrap;html=1;" parent="u3898H1TUdP29E4AW8oR-1" vertex="1">
          <mxGeometry y="150" width="140" height="30" as="geometry" />
        </mxCell>
        <mxCell id="u3898H1TUdP29E4AW8oR-9" value="Precio" style="text;strokeColor=none;fillColor=none;align=left;verticalAlign=middle;spacingLeft=4;spacingRight=4;overflow=hidden;points=[[0,0.5],[1,0.5]];portConstraint=eastwest;rotatable=0;whiteSpace=wrap;html=1;" parent="u3898H1TUdP29E4AW8oR-1" vertex="1">
          <mxGeometry y="180" width="140" height="30" as="geometry" />
        </mxCell>
        <mxCell id="u3898H1TUdP29E4AW8oR-10" value="Ubicación" style="text;strokeColor=none;fillColor=none;align=left;verticalAlign=middle;spacingLeft=4;spacingRight=4;overflow=hidden;points=[[0,0.5],[1,0.5]];portConstraint=eastwest;rotatable=0;whiteSpace=wrap;html=1;" parent="u3898H1TUdP29E4AW8oR-1" vertex="1">
          <mxGeometry y="210" width="140" height="30" as="geometry" />
        </mxCell>
        <mxCell id="u3898H1TUdP29E4AW8oR-8" value="ID_Propietario" style="text;strokeColor=none;fillColor=none;align=left;verticalAlign=middle;spacingLeft=4;spacingRight=4;overflow=hidden;points=[[0,0.5],[1,0.5]];portConstraint=eastwest;rotatable=0;whiteSpace=wrap;html=1;" parent="u3898H1TUdP29E4AW8oR-1" vertex="1">
          <mxGeometry y="240" width="140" height="30" as="geometry" />
        </mxCell>
        <mxCell id="u3898H1TUdP29E4AW8oR-11" value="ID_Categoría" style="text;strokeColor=none;fillColor=none;align=left;verticalAlign=middle;spacingLeft=4;spacingRight=4;overflow=hidden;points=[[0,0.5],[1,0.5]];portConstraint=eastwest;rotatable=0;whiteSpace=wrap;html=1;" parent="u3898H1TUdP29E4AW8oR-1" vertex="1">
          <mxGeometry y="270" width="140" height="30" as="geometry" />
        </mxCell>
        <mxCell id="u3898H1TUdP29E4AW8oR-89" value="Compra" style="rounded=0;whiteSpace=wrap;html=1;" parent="1" vertex="1">
          <mxGeometry x="630" y="330" width="100" height="30" as="geometry" />
        </mxCell>
        <mxCell id="u3898H1TUdP29E4AW8oR-92" value="" style="endArrow=none;html=1;rounded=0;entryX=0.5;entryY=0;entryDx=0;entryDy=0;exitX=-0.022;exitY=0.148;exitDx=0;exitDy=0;exitPerimeter=0;" parent="1" source="u3898H1TUdP29E4AW8oR-41" target="u3898H1TUdP29E4AW8oR-89" edge="1">
          <mxGeometry width="50" height="50" relative="1" as="geometry">
            <mxPoint x="910" y="170" as="sourcePoint" />
            <mxPoint x="900" y="485" as="targetPoint" />
            <Array as="points">
              <mxPoint x="680" y="160" />
            </Array>
          </mxGeometry>
        </mxCell>
        <mxCell id="u3898H1TUdP29E4AW8oR-93" value="Tener" style="shape=rhombus;perimeter=rhombusPerimeter;whiteSpace=wrap;html=1;align=center;" parent="1" vertex="1">
          <mxGeometry x="765" y="130" width="75" height="60" as="geometry" />
        </mxCell>
        <mxCell id="u3898H1TUdP29E4AW8oR-94" value="" style="endArrow=none;html=1;rounded=0;entryX=0.286;entryY=-0.006;entryDx=0;entryDy=0;entryPerimeter=0;" parent="1" target="u3898H1TUdP29E4AW8oR-12" edge="1">
          <mxGeometry width="50" height="50" relative="1" as="geometry">
            <mxPoint x="160" y="240" as="sourcePoint" />
            <mxPoint x="210" y="290" as="targetPoint" />
          </mxGeometry>
        </mxCell>
        <mxCell id="u3898H1TUdP29E4AW8oR-95" value="" style="triangle;whiteSpace=wrap;html=1;rotation=-90;" parent="1" vertex="1">
          <mxGeometry x="130" y="170" width="60" height="80" as="geometry" />
        </mxCell>
        <mxCell id="u3898H1TUdP29E4AW8oR-96" value="Comprador" style="swimlane;fontStyle=0;childLayout=stackLayout;horizontal=1;startSize=26;horizontalStack=0;resizeParent=1;resizeParentMax=0;resizeLast=0;collapsible=1;marginBottom=0;align=center;fontSize=14;" parent="1" vertex="1">
          <mxGeometry x="-80" y="-40" width="160" height="160" as="geometry" />
        </mxCell>
        <mxCell id="u3898H1TUdP29E4AW8oR-97" value="ID" style="text;strokeColor=none;fillColor=none;spacingLeft=4;spacingRight=4;overflow=hidden;rotatable=0;points=[[0,0.5],[1,0.5]];portConstraint=eastwest;fontSize=12;whiteSpace=wrap;html=1;" parent="u3898H1TUdP29E4AW8oR-96" vertex="1">
          <mxGeometry y="26" width="160" height="30" as="geometry" />
        </mxCell>
        <mxCell id="u3898H1TUdP29E4AW8oR-98" value="ID_Usuario" style="text;strokeColor=none;fillColor=none;spacingLeft=4;spacingRight=4;overflow=hidden;rotatable=0;points=[[0,0.5],[1,0.5]];portConstraint=eastwest;fontSize=12;whiteSpace=wrap;html=1;" parent="u3898H1TUdP29E4AW8oR-96" vertex="1">
          <mxGeometry y="56" width="160" height="30" as="geometry" />
        </mxCell>
        <mxCell id="u3898H1TUdP29E4AW8oR-99" value="Nº de productos comprados" style="text;strokeColor=none;fillColor=none;spacingLeft=4;spacingRight=4;overflow=hidden;rotatable=0;points=[[0,0.5],[1,0.5]];portConstraint=eastwest;fontSize=12;whiteSpace=wrap;html=1;" parent="u3898H1TUdP29E4AW8oR-96" vertex="1">
          <mxGeometry y="86" width="160" height="30" as="geometry" />
        </mxCell>
        <mxCell id="u3898H1TUdP29E4AW8oR-100" value="Valoración promedio como comprador" style="text;strokeColor=none;fillColor=none;spacingLeft=4;spacingRight=4;overflow=hidden;rotatable=0;points=[[0,0.5],[1,0.5]];portConstraint=eastwest;fontSize=12;whiteSpace=wrap;html=1;" parent="u3898H1TUdP29E4AW8oR-96" vertex="1">
          <mxGeometry y="116" width="160" height="44" as="geometry" />
        </mxCell>
        <mxCell id="u3898H1TUdP29E4AW8oR-101" value="Vendedor" style="swimlane;fontStyle=0;childLayout=stackLayout;horizontal=1;startSize=26;horizontalStack=0;resizeParent=1;resizeParentMax=0;resizeLast=0;collapsible=1;marginBottom=0;align=center;fontSize=14;" parent="1" vertex="1">
          <mxGeometry x="240" y="-40" width="160" height="160" as="geometry" />
        </mxCell>
        <mxCell id="u3898H1TUdP29E4AW8oR-102" value="ID" style="text;strokeColor=none;fillColor=none;spacingLeft=4;spacingRight=4;overflow=hidden;rotatable=0;points=[[0,0.5],[1,0.5]];portConstraint=eastwest;fontSize=12;whiteSpace=wrap;html=1;" parent="u3898H1TUdP29E4AW8oR-101" vertex="1">
          <mxGeometry y="26" width="160" height="30" as="geometry" />
        </mxCell>
        <mxCell id="u3898H1TUdP29E4AW8oR-103" value="ID_Usuario" style="text;strokeColor=none;fillColor=none;spacingLeft=4;spacingRight=4;overflow=hidden;rotatable=0;points=[[0,0.5],[1,0.5]];portConstraint=eastwest;fontSize=12;whiteSpace=wrap;html=1;" parent="u3898H1TUdP29E4AW8oR-101" vertex="1">
          <mxGeometry y="56" width="160" height="30" as="geometry" />
        </mxCell>
        <mxCell id="u3898H1TUdP29E4AW8oR-104" value="Nº de productos vendidos" style="text;strokeColor=none;fillColor=none;spacingLeft=4;spacingRight=4;overflow=hidden;rotatable=0;points=[[0,0.5],[1,0.5]];portConstraint=eastwest;fontSize=12;whiteSpace=wrap;html=1;" parent="u3898H1TUdP29E4AW8oR-101" vertex="1">
          <mxGeometry y="86" width="160" height="30" as="geometry" />
        </mxCell>
        <mxCell id="u3898H1TUdP29E4AW8oR-105" value="Valoración promedio como vendedor" style="text;strokeColor=none;fillColor=none;spacingLeft=4;spacingRight=4;overflow=hidden;rotatable=0;points=[[0,0.5],[1,0.5]];portConstraint=eastwest;fontSize=12;whiteSpace=wrap;html=1;" parent="u3898H1TUdP29E4AW8oR-101" vertex="1">
          <mxGeometry y="116" width="160" height="44" as="geometry" />
        </mxCell>
        <mxCell id="u3898H1TUdP29E4AW8oR-106" value="" style="endArrow=none;html=1;rounded=0;entryX=0.402;entryY=1.235;entryDx=0;entryDy=0;entryPerimeter=0;" parent="1" target="u3898H1TUdP29E4AW8oR-105" edge="1">
          <mxGeometry width="50" height="50" relative="1" as="geometry">
            <mxPoint x="180" y="213" as="sourcePoint" />
            <mxPoint x="230" y="163" as="targetPoint" />
          </mxGeometry>
        </mxCell>
        <mxCell id="u3898H1TUdP29E4AW8oR-107" value="" style="endArrow=none;html=1;rounded=0;exitX=0.523;exitY=1.098;exitDx=0;exitDy=0;exitPerimeter=0;" parent="1" source="u3898H1TUdP29E4AW8oR-100" edge="1">
          <mxGeometry width="50" height="50" relative="1" as="geometry">
            <mxPoint x="90" y="260" as="sourcePoint" />
            <mxPoint x="140" y="210" as="targetPoint" />
          </mxGeometry>
        </mxCell>
        <mxCell id="u3898H1TUdP29E4AW8oR-108" value="" style="triangle;whiteSpace=wrap;html=1;rotation=-90;" parent="1" vertex="1">
          <mxGeometry x="370" y="-210" width="50" height="60" as="geometry" />
        </mxCell>
        <mxCell id="u3898H1TUdP29E4AW8oR-112" value="" style="endArrow=none;html=1;rounded=0;entryX=-0.061;entryY=0.583;entryDx=0;entryDy=0;entryPerimeter=0;exitX=0.069;exitY=-0.015;exitDx=0;exitDy=0;exitPerimeter=0;" parent="1" source="u3898H1TUdP29E4AW8oR-110" target="u3898H1TUdP29E4AW8oR-2" edge="1">
          <mxGeometry width="50" height="50" relative="1" as="geometry">
            <mxPoint x="660" y="150" as="sourcePoint" />
            <mxPoint x="710" y="100" as="targetPoint" />
          </mxGeometry>
        </mxCell>
        <mxCell id="u3898H1TUdP29E4AW8oR-113" value="" style="endArrow=none;html=1;rounded=0;entryX=1;entryY=0.5;entryDx=0;entryDy=0;" parent="1" target="u3898H1TUdP29E4AW8oR-110" edge="1">
          <mxGeometry width="50" height="50" relative="1" as="geometry">
            <mxPoint x="350" y="-40" as="sourcePoint" />
            <mxPoint x="400" y="-90" as="targetPoint" />
          </mxGeometry>
        </mxCell>
        <mxCell id="u3898H1TUdP29E4AW8oR-114" value="" style="endArrow=none;html=1;rounded=0;exitX=0.75;exitY=0;exitDx=0;exitDy=0;entryX=0.042;entryY=0.948;entryDx=0;entryDy=0;entryPerimeter=0;" parent="1" source="u3898H1TUdP29E4AW8oR-96" target="u3898H1TUdP29E4AW8oR-110" edge="1">
          <mxGeometry width="50" height="50" relative="1" as="geometry">
            <mxPoint x="330" y="30" as="sourcePoint" />
            <mxPoint x="380" y="-20" as="targetPoint" />
          </mxGeometry>
        </mxCell>
        <mxCell id="u3898H1TUdP29E4AW8oR-115" value="CHATEAR" style="text;html=1;align=center;verticalAlign=middle;resizable=0;points=[];autosize=1;strokeColor=none;fillColor=none;" parent="1" vertex="1">
          <mxGeometry x="350" y="-240" width="80" height="30" as="geometry" />
        </mxCell>
        <mxCell id="u3898H1TUdP29E4AW8oR-116" value="Especialización" style="text;html=1;align=center;verticalAlign=middle;resizable=0;points=[];autosize=1;strokeColor=none;fillColor=none;" parent="1" vertex="1">
          <mxGeometry x="-80" y="-70" width="110" height="30" as="geometry" />
        </mxCell>
        <mxCell id="u3898H1TUdP29E4AW8oR-117" value="" style="endArrow=none;html=1;rounded=0;" parent="1" edge="1">
          <mxGeometry width="50" height="50" relative="1" as="geometry">
            <mxPoint x="-200" y="480" as="sourcePoint" />
            <mxPoint x="120" y="480" as="targetPoint" />
          </mxGeometry>
        </mxCell>
        <mxCell id="u3898H1TUdP29E4AW8oR-118" value="" style="endArrow=none;html=1;rounded=0;" parent="1" edge="1">
          <mxGeometry width="50" height="50" relative="1" as="geometry">
            <mxPoint x="-200" y="-280" as="sourcePoint" />
            <mxPoint x="-200" y="480" as="targetPoint" />
          </mxGeometry>
        </mxCell>
        <mxCell id="u3898H1TUdP29E4AW8oR-119" value="" style="endArrow=none;html=1;rounded=0;" parent="1" edge="1">
          <mxGeometry width="50" height="50" relative="1" as="geometry">
            <mxPoint x="-200" y="-280" as="sourcePoint" />
            <mxPoint x="1020" y="-280" as="targetPoint" />
          </mxGeometry>
        </mxCell>
        <mxCell id="u3898H1TUdP29E4AW8oR-120" value="" style="endArrow=none;html=1;rounded=0;exitX=0.5;exitY=0;exitDx=0;exitDy=0;" parent="1" source="u3898H1TUdP29E4AW8oR-39" edge="1">
          <mxGeometry width="50" height="50" relative="1" as="geometry">
            <mxPoint x="740" y="380" as="sourcePoint" />
            <mxPoint x="1020" y="-280" as="targetPoint" />
          </mxGeometry>
        </mxCell>
        <mxCell id="u3898H1TUdP29E4AW8oR-121" value="Reportar" style="shape=rhombus;perimeter=rhombusPerimeter;whiteSpace=wrap;html=1;align=center;" parent="1" vertex="1">
          <mxGeometry x="760" y="-310" width="70" height="60" as="geometry" />
        </mxCell>
        <mxCell id="mEbNbHpy91OCYPONSAbM-1" value="1:n" style="text;html=1;align=center;verticalAlign=middle;resizable=0;points=[];autosize=1;strokeColor=none;fillColor=none;" vertex="1" parent="1">
          <mxGeometry x="-40" y="118" width="40" height="30" as="geometry" />
        </mxCell>
        <mxCell id="mEbNbHpy91OCYPONSAbM-2" value="S, P" style="text;html=1;align=center;verticalAlign=middle;resizable=0;points=[];autosize=1;strokeColor=none;fillColor=none;" vertex="1" parent="1">
          <mxGeometry x="85" y="208" width="50" height="30" as="geometry" />
        </mxCell>
        <mxCell id="mEbNbHpy91OCYPONSAbM-3" value="1:n" style="text;html=1;align=center;verticalAlign=middle;resizable=0;points=[];autosize=1;strokeColor=none;fillColor=none;" vertex="1" parent="1">
          <mxGeometry x="250" y="118" width="40" height="30" as="geometry" />
        </mxCell>
        <mxCell id="mEbNbHpy91OCYPONSAbM-4" value="0: n" style="text;html=1;align=center;verticalAlign=middle;resizable=0;points=[];autosize=1;strokeColor=none;fillColor=none;" vertex="1" parent="1">
          <mxGeometry x="320" y="-192" width="40" height="30" as="geometry" />
        </mxCell>
        <mxCell id="mEbNbHpy91OCYPONSAbM-5" value="0:n" style="text;html=1;align=center;verticalAlign=middle;resizable=0;points=[];autosize=1;strokeColor=none;fillColor=none;" vertex="1" parent="1">
          <mxGeometry x="360" y="-132" width="40" height="30" as="geometry" />
        </mxCell>
        <mxCell id="mEbNbHpy91OCYPONSAbM-6" value="0:n" style="text;html=1;align=center;verticalAlign=middle;resizable=0;points=[];autosize=1;strokeColor=none;fillColor=none;" vertex="1" parent="1">
          <mxGeometry x="440" y="-202" width="40" height="30" as="geometry" />
        </mxCell>
        <mxCell id="mEbNbHpy91OCYPONSAbM-7" value="0:n" style="text;html=1;align=center;verticalAlign=middle;resizable=0;points=[];autosize=1;strokeColor=none;fillColor=none;" vertex="1" parent="1">
          <mxGeometry x="730" y="-312" width="40" height="30" as="geometry" />
        </mxCell>
        <mxCell id="mEbNbHpy91OCYPONSAbM-8" value="0:n" style="text;html=1;align=center;verticalAlign=middle;resizable=0;points=[];autosize=1;strokeColor=none;fillColor=none;" vertex="1" parent="1">
          <mxGeometry x="910" y="128" width="40" height="30" as="geometry" />
        </mxCell>
        <mxCell id="mEbNbHpy91OCYPONSAbM-9" value="0:n" style="text;html=1;align=center;verticalAlign=middle;resizable=0;points=[];autosize=1;strokeColor=none;fillColor=none;" vertex="1" parent="1">
          <mxGeometry x="980" y="68" width="40" height="30" as="geometry" />
        </mxCell>
        <mxCell id="mEbNbHpy91OCYPONSAbM-10" value="1:n" style="text;html=1;align=center;verticalAlign=middle;resizable=0;points=[];autosize=1;strokeColor=none;fillColor=none;" vertex="1" parent="1">
          <mxGeometry x="600" y="478" width="40" height="30" as="geometry" />
        </mxCell>
        <mxCell id="mEbNbHpy91OCYPONSAbM-11" value="0:n" style="text;html=1;align=center;verticalAlign=middle;resizable=0;points=[];autosize=1;strokeColor=none;fillColor=none;" vertex="1" parent="1">
          <mxGeometry x="760" y="518" width="40" height="30" as="geometry" />
        </mxCell>
        <mxCell id="mEbNbHpy91OCYPONSAbM-12" value="1:1" style="text;html=1;align=center;verticalAlign=middle;resizable=0;points=[];autosize=1;strokeColor=none;fillColor=none;" vertex="1" parent="1">
          <mxGeometry x="1020" y="528" width="40" height="30" as="geometry" />
        </mxCell>
        <mxCell id="mEbNbHpy91OCYPONSAbM-13" value="1.1" style="text;html=1;align=center;verticalAlign=middle;resizable=0;points=[];autosize=1;strokeColor=none;fillColor=none;" vertex="1" parent="1">
          <mxGeometry x="510" y="768" width="40" height="30" as="geometry" />
        </mxCell>
        <mxCell id="mEbNbHpy91OCYPONSAbM-14" value="0.n" style="text;html=1;align=center;verticalAlign=middle;resizable=0;points=[];autosize=1;strokeColor=none;fillColor=none;" vertex="1" parent="1">
          <mxGeometry x="370" y="768" width="40" height="30" as="geometry" />
        </mxCell>
        <mxCell id="mEbNbHpy91OCYPONSAbM-15" value="0.n" style="text;html=1;align=center;verticalAlign=middle;resizable=0;points=[];autosize=1;strokeColor=none;fillColor=none;" vertex="1" parent="1">
          <mxGeometry x="350" y="848" width="40" height="30" as="geometry" />
        </mxCell>
        <mxCell id="mEbNbHpy91OCYPONSAbM-16" value="1.1" style="text;html=1;align=center;verticalAlign=middle;resizable=0;points=[];autosize=1;strokeColor=none;fillColor=none;" vertex="1" parent="1">
          <mxGeometry x="190" y="588" width="40" height="30" as="geometry" />
        </mxCell>
        <mxCell id="mEbNbHpy91OCYPONSAbM-19" value="1.1" style="text;html=1;align=center;verticalAlign=middle;resizable=0;points=[];autosize=1;strokeColor=none;fillColor=none;" vertex="1" parent="1">
          <mxGeometry x="80" y="448" width="40" height="30" as="geometry" />
        </mxCell>
        <mxCell id="mEbNbHpy91OCYPONSAbM-20" value="1.1" style="text;html=1;align=center;verticalAlign=middle;resizable=0;points=[];autosize=1;strokeColor=none;fillColor=none;" vertex="1" parent="1">
          <mxGeometry x="150" y="330" width="40" height="30" as="geometry" />
        </mxCell>
        <mxCell id="mEbNbHpy91OCYPONSAbM-21" value="1.n" style="text;html=1;align=center;verticalAlign=middle;resizable=0;points=[];autosize=1;strokeColor=none;fillColor=none;" vertex="1" parent="1">
          <mxGeometry x="260" y="478" width="40" height="30" as="geometry" />
        </mxCell>
      </root>
    </mxGraphModel>
  </diagram>
</mxfile>
